REM DIRINDEX 1\2,1\4,1\3\5,1\3\6,1\3\7
REM DIRNAME folder01,folder02,folder03,folder04,folder05,folder06,folder07
TITLE ""
FILE "CD1Track32.mp3" MP3
  TRACK 01 AUDIO
    TITLE "0:"
    INDEX 01 00:00:00
  TRACK 02 AUDIO
    TITLE "5:cjc083_0660"
    INDEX 01 00:00:27
  TRACK 03 AUDIO
    TITLE "0:"
    INDEX 01 00:01:62
  TRACK 04 AUDIO
    TITLE "6:cjc083_0661"
    INDEX 01 00:02:30
  TRACK 05 AUDIO
    TITLE "0:"
    INDEX 01 00:04:33
  TRACK 06 AUDIO
    TITLE "5:cjc083_0662"
    INDEX 01 00:05:05
  TRACK 07 AUDIO
    TITLE "0:"
    INDEX 01 00:06:49
  TRACK 08 AUDIO
    TITLE "6:cjc083_0663"
    INDEX 01 00:07:13
  TRACK 09 AUDIO
    TITLE "0:"
    INDEX 01 00:08:50
  TRACK 10 AUDIO
    TITLE "5:cjc083_0664"
    INDEX 01 00:09:22
  TRACK 11 AUDIO
    TITLE "0:"
    INDEX 01 00:10:59
  TRACK 12 AUDIO
    TITLE "6:cjc083_0665"
    INDEX 01 00:11:31
  TRACK 13 AUDIO
    TITLE "0:"
    INDEX 01 00:13:08
  TRACK 14 AUDIO
    TITLE "5:cjc083_0666"
    INDEX 01 00:13:45
  TRACK 15 AUDIO
    TITLE "0:"
    INDEX 01 00:14:70
  TRACK 16 AUDIO
    TITLE "6:cjc083_0667"
    INDEX 01 00:15:38
  TRACK 17 AUDIO
    TITLE "0:"
    INDEX 01 00:17:08
  TRACK 18 AUDIO
    TITLE "5:cjc083_0668"
    INDEX 01 00:17:51
  TRACK 19 AUDIO
    TITLE "0:"
    INDEX 01 00:18:68
  TRACK 20 AUDIO
    TITLE "6:cjc083_0669"
    INDEX 01 00:19:36
  TRACK 21 AUDIO
    TITLE "0:"
    INDEX 01 00:20:47
  TRACK 22 AUDIO
    TITLE "5:cjc083_0670"
    INDEX 01 00:21:17
  TRACK 23 AUDIO
    TITLE "0:"
    INDEX 01 00:22:70
  TRACK 24 AUDIO
    TITLE "6:cjc083_0671"
    INDEX 01 00:23:38
  TRACK 25 AUDIO
    TITLE "0:"
    INDEX 01 00:25:64
  TRACK 26 AUDIO
    TITLE "5:cjc083_0672"
    INDEX 01 00:26:26
  TRACK 27 AUDIO
    TITLE "0:"
    INDEX 01 00:27:26
  TRACK 28 AUDIO
    TITLE "6:cjc083_0673"
    INDEX 01 00:27:69
  TRACK 29 AUDIO
    TITLE "0:"
    INDEX 01 00:29:17
  TRACK 30 AUDIO
    TITLE "5:cjc083_0674"
    INDEX 01 00:29:68
  TRACK 31 AUDIO
    TITLE "0:"
    INDEX 01 00:31:27
  TRACK 32 AUDIO
    TITLE "6:cjc083_0675"
    INDEX 01 00:31:73
  TRACK 33 AUDIO
    TITLE "0:"
    INDEX 01 00:33:28
  TRACK 34 AUDIO
    TITLE "5:cjc083_0676"
    INDEX 01 00:33:68
  TRACK 35 AUDIO
    TITLE "0:"
    INDEX 01 00:35:29
  TRACK 36 AUDIO
    TITLE "6:cjc083_0677"
    INDEX 01 00:35:72
  TRACK 37 AUDIO
    TITLE "0:"
    INDEX 01 00:37:18
  TRACK 38 AUDIO
    TITLE "5:cjc083_0678"
    INDEX 01 00:37:59
  TRACK 39 AUDIO
    TITLE "0:"
    INDEX 01 00:39:00
  TRACK 40 AUDIO
    TITLE "6:cjc083_0679"
    INDEX 01 00:39:43
  TRACK 41 AUDIO
    TITLE "0:"
    INDEX 01 00:41:18
  TRACK 42 AUDIO
    TITLE "5:cjc083_0680"
    INDEX 01 00:41:57
  TRACK 43 AUDIO
    TITLE "0:"
    INDEX 01 00:43:07
  TRACK 44 AUDIO
    TITLE "6:cjc083_0681"
    INDEX 01 00:43:44
  TRACK 45 AUDIO
    TITLE "0:"
    INDEX 01 00:46:23
  TRACK 46 AUDIO
    TITLE "5:cjc083_0682"
    INDEX 01 00:46:66
  TRACK 47 AUDIO
    TITLE "0:"
    INDEX 01 00:48:30
  TRACK 48 AUDIO
    TITLE "6:cjc083_0683"
    INDEX 01 00:48:71
  TRACK 49 AUDIO
    TITLE "0:"
    INDEX 01 00:50:70
  TRACK 50 AUDIO
    TITLE "5:cjc083_0684"
    INDEX 01 00:51:30
  TRACK 51 AUDIO
    TITLE "0:"
    INDEX 01 00:52:61
  TRACK 52 AUDIO
    TITLE "6:cjc083_0685"
    INDEX 01 00:53:25
  TRACK 53 AUDIO
    TITLE "0:"
    INDEX 01 00:55:10
  TRACK 54 AUDIO
    TITLE "5:cjc083_0686"
    INDEX 01 00:55:44
  TRACK 55 AUDIO
    TITLE "0:"
    INDEX 01 00:56:49
  TRACK 56 AUDIO
    TITLE "6:cjc083_0687"
    INDEX 01 00:57:21
  TRACK 57 AUDIO
    TITLE "0:"
    INDEX 01 01:00:23
  TRACK 58 AUDIO
    TITLE "5:cjc083_0688"
    INDEX 01 01:00:70
  TRACK 59 AUDIO
    TITLE "0:"
    INDEX 01 01:02:22
  TRACK 60 AUDIO
    TITLE "6:cjc083_0689"
    INDEX 01 01:02:65
  TRACK 61 AUDIO
    TITLE "0:"
    INDEX 01 01:04:21
  TRACK 62 AUDIO
    TITLE "7:cjc083_0690"
    INDEX 01 01:05:58
  TRACK 63 AUDIO
    TITLE "0:"
    INDEX 01 01:17:00
